HIERARCHY
ROOT pelvis
{
  OFFSET 0 100 0
  CHANNELS 6 Xposition Yposition Zposition Zrotation Xrotation Yrotation
  JOINT pelvis_right_femur
  {
    OFFSET -10.78128 -3.44521 -0.5502486
    CHANNELS 3 Zrotation Xrotation Yrotation
    JOINT right_femur_tibia
    {
      OFFSET -0.8047443 -44.0398 -0.1307829
      CHANNELS 3 Zrotation Xrotation Yrotation
      JOINT right_tibia_foot
      {
        OFFSET 3.006224 -47.83518 -5
        CHANNELS 3 Zrotation Xrotation Yrotation
        End Site
        {
          OFFSET 0 -5 15
        }
      }
    }
  }
  JOINT pelvis_left_femur
  {
    OFFSET 10.78128 -3.44521 -0.5502486
    CHANNELS 3 Zrotation Xrotation Yrotation
    JOINT left_femur_tibia
    {
      OFFSET 0.8047443 -44.0398 -0.1307829
      CHANNELS 3 Zrotation Xrotation Yrotation
      JOINT left_tibia_foot
      {
        OFFSET -4.370144 -48.10324 -4.275266
        CHANNELS 3 Zrotation Xrotation Yrotation
        End Site
        {
          OFFSET 0 -5 15
        }
      }
    }
  }
  JOINT pelvis_spine1
  {
    OFFSET 0 6.468898 -3.129235
    CHANNELS 3 Zrotation Xrotation Yrotation
    JOINT spine1
    {
      OFFSET 0 23.15396 4.99043
      CHANNELS 3 Zrotation Xrotation Yrotation
      JOINT spine2
      {
        OFFSET 0 20.79997 -5.064912
        CHANNELS 3 Zrotation Xrotation Yrotation
        JOINT neck
        {
          OFFSET 0 14.38658 9.616178
          CHANNELS 3 Zrotation Xrotation Yrotation
          End Site
          {
            OFFSET 0 20 0
          }
        }
      }
      JOINT right_manubrium
      {
        OFFSET -5.722621 16.35077 3.967754
        CHANNELS 3 Zrotation Xrotation Yrotation
        JOINT right_clavicle
        {
          OFFSET -13.16364 1.694482 -4.693211
          CHANNELS 3 Zrotation Xrotation Yrotation
          JOINT right_humerus
          {
            OFFSET -28.5034 -0.3100689 -2.792744
            CHANNELS 3 Zrotation Xrotation Yrotation
            JOINT right_radius
            {
              OFFSET -25.15693 0.02248979 -1.271978
              CHANNELS 3 Zrotation Xrotation Yrotation
              End Site
              {
                OFFSET -15 0 0
              }
            }
          }
        }
      }
      JOINT left_manubrium
      {
        OFFSET 5.722621 16.35077 3.967754
        CHANNELS 3 Zrotation Xrotation Yrotation
        JOINT left_clavicle
        {
          OFFSET 13.16364 1.694482 -4.693211
          CHANNELS 3 Zrotation Xrotation Yrotation
          JOINT left_humerus
          {
            OFFSET 29.39168 -1.063119 -2.237045
            CHANNELS 3 Zrotation Xrotation Yrotation
            JOINT left_radius
            {
              OFFSET 24.59957 -0.9528479 0.9047498
              CHANNELS 3 Zrotation Xrotation Yrotation
              End Site
              {
                OFFSET 15 -0 -0
              }
            }
          }
        }
      }
    }
  }
}
MOTION
Frames: 9
Frame Time: 0.0416666666667
0 103.5113 0 1.1466 -2.176292 -0.08487703 3.855642 -16.47406 8.662194 -0 39.67809 -0 -5.897637 -17.81807 -1.115574 -7.050768 12.01453 -23.38735 -0 4.714115 -0 20.06455 -7.517391 29.35701 -2.230304 -2.287954 5.313338 2.202656 10.11 -6.845573 1.324869 21.09959 7.520944 3.339828 -26.00821 10.60856 5.329904 -19.5591 11.14643 87.02834 39.51367 -18.42114 -0 0 13.69356 -8.266512 8.91784 5.059449 6.234433 -20.25281 -1.192577 -91.80886 20.82231 21.72868 0 0 -17.0553 14.96737 12.08439 -2.635087
0.3889354 103.6856 1.700239 0.5734833 -0.6572716 -0.2026275 4.984249 -19.75794 10.33773 -0 40.55341 -0 -5.447441 -18.38635 -2.014419 -7.01772 11.54473 -23.32078 -0 4.898092 -0 19.87134 -9.062123 29.81251 -2.198838 -2.233164 5.202571 2.291368 10.11231 -6.974329 1.417031 20.8868 7.524306 3.35419 -26.15131 10.7582 5.348897 -19.53681 11.13253 87.45154 39.94701 -18.95518 -0 0 13.46781 -7.442073 8.863435 4.615896 6.37783 -20.3085 -1.271218 -91.22094 20.60101 21.13598 0 0 -18.4623 15.51901 11.73966 -3.174342
0.7542293 103.6235 3.704688 0.7774083 -0.8445355 -0.2539961 4.630446 -20.33978 8.309298 -0 35.95241 -0 -6.087966 -15.24206 -1.500969 -7.110831 11.74219 -22.17398 -0 5.901371 -0 17.98344 -11.13471 28.3998 -2.146036 -2.192054 4.993662 2.462676 10.24021 -7.268757 1.446431 20.73073 7.379025 3.293066 -25.97632 10.5414 5.403494 -19.25598 11.21822 87.91942 39.4782 -19.86162 -0 0 12.95941 -7.152576 8.928257 4.480233 6.421838 -20.56162 -1.522 -90.57029 20.75429 20.22371 0 0 -19.82293 15.08265 11.52208 -2.666729
1.097428 103.4844 5.934644 0.636991 -0.3590547 -0.2757363 4.903179 -22.20059 7.621078 -0 33.12958 -0 -6.356492 -13.29321 -1.458874 -7.07729 11.79411 -21.35814 -0 6.613933 -0 16.60712 -13.00596 27.48451 -2.116438 -2.159882 4.874012 2.554562 10.28024 -7.425168 1.49174 20.58888 7.323946 3.272964 -25.94365 10.51028 5.429989 -19.14217 11.24288 88.23036 39.47237 -20.37061 -0 0 12.7054 -6.753325 8.95177 4.278448 6.497203 -20.68288 -1.643438 -90.0758 20.72033 19.62311 0 0 -20.91002 15.12245 11.31387 -2.678226
1.417249 103.2618 8.367835 0.4581898 0.1270719 -0.2517693 5.207426 -23.97135 7.129522 -0 30.77369 -0 -6.556982 -11.64975 -1.457372 -6.986648 11.89977 -20.66834 -0 7.21518 -0 15.24412 -14.63302 26.58964 -2.075279 -2.145858 4.725903 2.675807 10.35769 -7.640407 1.520364 20.45407 7.230426 3.23136 -25.84104 10.38833 5.469491 -18.96205 11.29472 88.57009 39.18852 -21.0294 -0 0 12.3792 -6.463192 9.008054 4.133399 6.55306 -20.87366 -1.814363 -89.57914 20.81963 18.94651 0 0 -22.01775 14.8865 11.15599 -2.38664
1.716178 102.9714 11.03275 0.1932058 0.6880125 -0.1782844 5.659697 -25.97972 6.760636 -0 28.50632 -0 -6.770317 -10.04666 -1.420214 -6.822765 12.03499 -19.94866 -0 7.924879 -0 14.06022 -15.98368 25.63843 -2.047043 -2.128677 4.617795 2.757436 10.40731 -7.79103 1.544519 20.3493 7.167214 3.20487 -25.75595 10.30666 5.49555 -18.83192 11.32789 88.81678 39.03743 -21.48557 -0 0 12.14236 -6.246908 9.060625 4.025991 6.601087 -21.01115 -1.936083 -89.17505 20.85199 18.41405 0 0 -22.8821 14.75815 11.01775 -2.222896
1.994587 102.6241 13.95119 -0.1194554 1.253176 -0.05267818 6.168055 -27.96148 6.429768 -0 26.31291 -0 -6.99794 -8.492023 -1.343659 -6.599716 12.19917 -19.21201 -0 8.778543 -0 12.86763 -17.08617 24.56903 -2.016895 -2.127664 4.519102 2.837949 10.46347 -7.941795 1.558006 20.26239 7.102346 3.175117 -25.66932 10.21007 5.522882 -18.70439 11.36523 89.0362 38.79599 -21.93505 -0 0 11.92615 -6.093962 9.113971 3.946936 6.635866 -21.15565 -2.055052 -88.85326 20.94397 17.96065 0 0 -23.60813 14.54552 10.92961 -1.96532
2.254469 102.2375 17.16131 -0.4785517 1.804588 0.122511 6.730443 -29.85725 6.077865 -0 24.09819 -0 -7.277043 -6.947298 -1.191666 -6.32024 12.35658 -18.39986 -0 9.950005 -0 11.74215 -17.82642 23.34492 -1.995642 -2.12047 4.44525 2.89356 10.51013 -8.05174 1.562588 20.20787 7.051677 3.153564 -25.57636 10.11846 5.541529 -18.59542 11.39583 89.19122 38.5946 -22.25381 -0 0 11.74831 -6.046125 9.167812 3.921875 6.652521 -21.26828 -2.148338 -88.61089 21.00745 17.61104 0 0 -24.10441 14.34465 10.86206 -1.731664
2.497029 101.8378 20.69761 -0.8723977 2.318136 0.340472 7.310581 -31.51247 5.692559 -0 21.91616 -0 -7.603557 -5.470977 -0.9877588 -5.989876 12.47284 -17.51565 -0 11.55006 -0 10.59289 -18.18385 21.93777 -1.977583 -2.117028 4.388198 2.937921 10.55797 -8.142585 1.556482 20.18061 7.005884 3.134148 -25.48079 10.0187 5.556605 -18.49528 11.42667 89.30301 38.357 -22.50997 -0 0 11.59477 -6.086878 9.218451 3.939929 6.65008 -21.36765 -2.22937 -88.45704 21.09301 17.36073 0 0 -24.40031 14.09541 10.83005 -1.449904
